<mxfile host="app.diagrams.net" modified="2024-01-09T22:18:16.346Z" agent="Mozilla/5.0 (Windows NT 10.0; Win64; x64) AppleWebKit/537.36 (KHTML, like Gecko) Chrome/120.0.0.0 Safari/537.36" etag="8E-BelRaPxYzClqLYzmd" version="22.1.17" type="github">
  <diagram name="Page-1" id="74e2e168-ea6b-b213-b513-2b3c1d86103e">
    <mxGraphModel dx="1434" dy="760" grid="1" gridSize="10" guides="1" tooltips="1" connect="1" arrows="1" fold="1" page="1" pageScale="1" pageWidth="1100" pageHeight="850" background="none" math="0" shadow="0">
      <root>
        <mxCell id="0" />
        <mxCell id="1" parent="0" />
        <mxCell id="77e6c97f196da883-1" value="Pool" style="swimlane;html=1;childLayout=stackLayout;startSize=20;rounded=0;shadow=0;labelBackgroundColor=none;strokeWidth=1;fontFamily=Verdana;fontSize=8;align=center;" parent="1" vertex="1">
          <mxGeometry x="70" y="40" width="960" height="850" as="geometry" />
        </mxCell>
        <mxCell id="77e6c97f196da883-2" value="Private Equity" style="swimlane;html=1;startSize=20;" parent="77e6c97f196da883-1" vertex="1">
          <mxGeometry y="20" width="160" height="830" as="geometry" />
        </mxCell>
        <mxCell id="77e6c97f196da883-8" value="Select fields for import template" style="rounded=1;whiteSpace=wrap;html=1;shadow=0;labelBackgroundColor=none;strokeWidth=1;fontFamily=Verdana;fontSize=8;align=center;" parent="77e6c97f196da883-2" vertex="1">
          <mxGeometry x="20" y="65" width="100" height="60" as="geometry" />
        </mxCell>
        <mxCell id="77e6c97f196da883-11" value="Confirm and build the import template" style="rounded=1;whiteSpace=wrap;html=1;shadow=0;labelBackgroundColor=none;strokeWidth=1;fontFamily=Verdana;fontSize=8;align=center;" parent="77e6c97f196da883-2" vertex="1">
          <mxGeometry x="20" y="180" width="100" height="60" as="geometry" />
        </mxCell>
        <mxCell id="77e6c97f196da883-26" style="edgeStyle=orthogonalEdgeStyle;rounded=1;html=1;labelBackgroundColor=none;startArrow=none;startFill=0;startSize=5;endArrow=classicThin;endFill=1;endSize=5;jettySize=auto;orthogonalLoop=1;strokeWidth=1;fontFamily=Verdana;fontSize=8" parent="77e6c97f196da883-2" source="77e6c97f196da883-8" target="77e6c97f196da883-11" edge="1">
          <mxGeometry relative="1" as="geometry" />
        </mxCell>
        <mxCell id="77e6c97f196da883-4" value="Output" style="swimlane;html=1;startSize=20;" parent="77e6c97f196da883-1" vertex="1">
          <mxGeometry x="160" y="20" width="370" height="830" as="geometry" />
        </mxCell>
        <mxCell id="77e6c97f196da883-3" value="Portfolio Company" style="swimlane;html=1;startSize=20;" parent="77e6c97f196da883-4" vertex="1">
          <mxGeometry width="160" height="830" as="geometry" />
        </mxCell>
        <mxCell id="ZVVIbeBZWOqhBtWkDw2S-4" value="" style="edgeStyle=orthogonalEdgeStyle;rounded=0;orthogonalLoop=1;jettySize=auto;html=1;" edge="1" parent="77e6c97f196da883-3" source="ZVVIbeBZWOqhBtWkDw2S-1" target="ZVVIbeBZWOqhBtWkDw2S-3">
          <mxGeometry relative="1" as="geometry" />
        </mxCell>
        <mxCell id="ZVVIbeBZWOqhBtWkDw2S-1" value="Trigger the report" style="rounded=1;whiteSpace=wrap;html=1;shadow=0;labelBackgroundColor=none;strokeWidth=1;fontFamily=Verdana;fontSize=8;align=center;" vertex="1" parent="77e6c97f196da883-3">
          <mxGeometry x="40" y="180" width="100" height="60" as="geometry" />
        </mxCell>
        <mxCell id="ZVVIbeBZWOqhBtWkDw2S-6" value="" style="edgeStyle=orthogonalEdgeStyle;rounded=0;orthogonalLoop=1;jettySize=auto;html=1;" edge="1" parent="77e6c97f196da883-3" source="ZVVIbeBZWOqhBtWkDw2S-3" target="ZVVIbeBZWOqhBtWkDw2S-5">
          <mxGeometry relative="1" as="geometry" />
        </mxCell>
        <mxCell id="ZVVIbeBZWOqhBtWkDw2S-3" value="Get the import template" style="rounded=1;whiteSpace=wrap;html=1;shadow=0;labelBackgroundColor=none;strokeWidth=1;fontFamily=Verdana;fontSize=8;align=center;" vertex="1" parent="77e6c97f196da883-3">
          <mxGeometry x="40" y="320" width="100" height="60" as="geometry" />
        </mxCell>
        <mxCell id="ZVVIbeBZWOqhBtWkDw2S-8" value="" style="edgeStyle=orthogonalEdgeStyle;rounded=0;orthogonalLoop=1;jettySize=auto;html=1;" edge="1" parent="77e6c97f196da883-3" source="ZVVIbeBZWOqhBtWkDw2S-5" target="ZVVIbeBZWOqhBtWkDw2S-7">
          <mxGeometry relative="1" as="geometry" />
        </mxCell>
        <mxCell id="ZVVIbeBZWOqhBtWkDw2S-5" value="Get the accountancy data" style="rounded=1;whiteSpace=wrap;html=1;shadow=0;labelBackgroundColor=none;strokeWidth=1;fontFamily=Verdana;fontSize=8;align=center;" vertex="1" parent="77e6c97f196da883-3">
          <mxGeometry x="40" y="460" width="100" height="60" as="geometry" />
        </mxCell>
        <mxCell id="ZVVIbeBZWOqhBtWkDw2S-7" value="Run both through the AI model asking for a data mapping" style="rounded=1;whiteSpace=wrap;html=1;shadow=0;labelBackgroundColor=none;strokeWidth=1;fontFamily=Verdana;fontSize=8;align=center;" vertex="1" parent="77e6c97f196da883-3">
          <mxGeometry x="40" y="600" width="100" height="60" as="geometry" />
        </mxCell>
        <mxCell id="ZVVIbeBZWOqhBtWkDw2S-11" value="Product report" style="rounded=1;whiteSpace=wrap;html=1;shadow=0;labelBackgroundColor=none;strokeWidth=1;fontFamily=Verdana;fontSize=8;align=center;" vertex="1" parent="77e6c97f196da883-4">
          <mxGeometry x="220" y="600" width="100" height="60" as="geometry" />
        </mxCell>
        <mxCell id="ZVVIbeBZWOqhBtWkDw2S-12" value="" style="edgeStyle=orthogonalEdgeStyle;rounded=0;orthogonalLoop=1;jettySize=auto;html=1;" edge="1" parent="77e6c97f196da883-4" source="ZVVIbeBZWOqhBtWkDw2S-7" target="ZVVIbeBZWOqhBtWkDw2S-11">
          <mxGeometry relative="1" as="geometry" />
        </mxCell>
        <mxCell id="ZVVIbeBZWOqhBtWkDw2S-2" value="" style="edgeStyle=orthogonalEdgeStyle;rounded=0;orthogonalLoop=1;jettySize=auto;html=1;" edge="1" parent="77e6c97f196da883-1" source="77e6c97f196da883-11" target="ZVVIbeBZWOqhBtWkDw2S-1">
          <mxGeometry relative="1" as="geometry" />
        </mxCell>
      </root>
    </mxGraphModel>
  </diagram>
</mxfile>
